<svg width="4646" height="845" viewBox="0 0 4646 845" fill="none" xmlns="http://www.w3.org/2000/svg">
<g clip-path="url(#clip0)">
<path d="M793.701 41.989H566.929V268.761H793.701V41.989Z" fill="white"/>
<path d="M793.701 325.454H566.929V552.226H793.701V325.454Z" fill="white"/>
<path d="M793.701 608.918H566.929V835.69H793.701V608.918Z" fill="white"/>
<path d="M510.237 325.454H283.465V552.226H510.237V325.454Z" fill="white"/>
<path d="M510.237 608.918H283.465V835.69H510.237V608.918Z" fill="white"/>
<path d="M226.772 608.918H0V835.69H226.772V608.918Z" fill="white"/>
<path d="M893.309 834V43H1170.22C1266.14 43 1338.89 61.359 1388.48 98.078C1438.08 134.797 1462.87 188.609 1462.87 259.5C1462.87 298.219 1452.92 332.312 1433.01 361.781C1413.11 391.265 1385.4 412.875 1349.94 426.625C1390.47 436.781 1422.42 457.281 1445.76 488.094C1469.11 518.907 1480.79 556.625 1480.79 601.219C1480.79 677.375 1456.53 735.016 1408.03 774.172C1359.53 813.328 1290.39 833.281 1200.62 834H893.309ZM1056.2 374H1176.73C1258.89 372.562 1299.98 339.844 1299.98 275.859C1299.98 240.078 1289.58 214.312 1268.76 198.593C1247.95 182.874 1215.09 175 1170.22 175H1056.2V374ZM1056.2 489V703H1195.73C1234.11 703 1264.06 693.844 1285.59 675.5C1307.12 657.172 1317.9 631.859 1317.9 599.547C1317.9 526.953 1280.43 490.094 1205.51 489H1056.2Z" fill="white"/>
<path d="M1591.52 93.734C1591.52 70.265 1599.38 50.937 1615.13 35.765C1630.88 20.593 1652.32 13 1679.47 13C1706.26 13 1727.62 20.594 1743.55 35.766C1759.47 50.938 1767.44 70.266 1767.44 93.735C1767.44 117.579 1759.38 137.079 1743.27 152.251C1727.16 167.423 1705.9 175 1679.47 175C1653.05 175 1631.79 167.422 1615.68 152.25C1599.57 137.078 1591.52 117.578 1591.52 93.734ZM1758.21 834H1600.76V246H1758.21V834Z" fill="white"/>
<path d="M2075.4 102V246H2175.85V361H2075.4V655.016C2075.4 676.797 2079.56 692.407 2087.88 701.844C2096.2 711.282 2112.13 716 2135.67 716C2153.04 716 2168.42 714.734 2181.82 712.203V830.906C2151.04 840.297 2119.37 845 2086.8 845C1976.76 845 1920.65 789.359 1918.48 678.047V361H1832.7V246H1918.48V102H2075.4Z" fill="white"/>
<path d="M2792.5 545.922C2792.5 640.016 2772.4 713.375 2732.22 766.031C2692.03 818.687 2635.93 845 2563.9 845C2500.18 845 2449.32 820.531 2411.32 771.594L2404.26 834H2263.09V0H2420.01V299.484C2456.2 257.172 2503.81 236 2562.81 236C2634.48 236 2690.68 262.328 2731.4 314.984C2772.12 367.64 2792.5 441.718 2792.5 537.25V545.922H2792.5ZM2635.56 533.984C2635.56 474.64 2626.14 431.312 2607.32 403.984C2588.5 376.672 2560.45 363 2523.17 363C2473.2 363 2438.81 383.453 2420 424.344V656.125C2439.19 697.375 2473.94 718 2524.25 718C2574.92 718 2608.22 693.031 2624.15 643.094C2631.75 619.219 2635.56 582.844 2635.56 533.984Z" fill="white"/>
<path d="M2864.88 535.078C2864.88 476.828 2876.1 424.89 2898.54 379.297C2920.98 333.704 2953.29 298.422 2995.46 273.453C3037.62 248.484 3086.59 236 3142.34 236C3221.6 236 3286.31 260.25 3336.45 308.734C3386.57 357.234 3414.54 423.093 3420.34 506.312L3421.42 546.468C3421.42 636.577 3396.26 708.859 3345.95 763.312C3295.63 817.781 3228.12 845 3143.42 845C3058.71 845 2991.12 817.875 2940.62 763.594C2890.12 709.313 2864.88 635.5 2864.88 542.125V535.078ZM3021.79 546.188C3021.79 601.844 3032.27 644.391 3053.27 673.829C3074.27 703.282 3104.32 718.001 3143.42 718.001C3181.42 718.001 3211.1 703.47 3232.46 674.376C3253.82 645.282 3264.51 598.767 3264.51 534.814C3264.51 480.252 3253.82 437.986 3232.46 407.986C3211.1 378 3181.06 363 3142.34 363C3103.96 363 3074.27 377.906 3053.27 407.719C3032.27 437.532 3021.79 483.688 3021.79 546.188Z" fill="white"/>
<path d="M3662.52 246L3667.41 313.938C3709.39 261.985 3765.68 236 3836.27 236C3898.52 236 3944.86 254.281 3975.27 290.812C4005.67 327.343 4021.24 381.968 4021.96 454.687V834H3865.05V458.062C3865.05 424.75 3857.8 400.578 3843.33 385.546C3828.85 370.515 3804.77 362.999 3771.11 362.999C3726.94 362.999 3693.81 381.843 3671.75 419.499V834H3514.83V246H3662.52Z" fill="white"/>
<path d="M4116.57 536.156C4116.57 444.609 4137.1 371.703 4178.19 317.422C4219.27 263.141 4275.48 236 4346.79 236C4403.98 236 4451.21 257.344 4488.49 300.031V0H4645.96V834H4504.24L4496.65 771.594C4457.55 820.531 4407.23 845 4345.69 845C4276.55 845 4221.09 817.781 4179.27 763.312C4137.46 708.859 4116.57 633.141 4116.57 536.156ZM4273.48 547.297C4273.48 602.391 4283.07 644.609 4302.26 673.969C4321.44 703.329 4349.32 718 4385.88 718C4434.38 718 4468.59 697.531 4488.49 656.562V424.438C4468.95 383.484 4435.1 363 4386.96 363C4311.3 363 4273.48 424.438 4273.48 547.297Z" fill="white"/>
</g>
<defs>
<clipPath id="clip0">
<rect width="4645.96" height="845" fill="white"/>
</clipPath>
</defs>
</svg>
